<svg width="24" height="25" viewBox="0 0 24 25" fill="none" xmlns="http://www.w3.org/2000/svg">
<g id="Social icon" clip-path="url(#clip0_994_10381)">
<path id="Vector" d="M23.7663 13.0956C23.7663 12.2799 23.7001 11.4597 23.559 10.6572H12.2402V15.2782H18.722C18.453 16.7686 17.5888 18.087 16.3233 18.9247V21.9231H20.1903C22.4611 19.833 23.7663 16.7465 23.7663 13.0956Z" fill="#4285F4"/>
<path id="Vector_2" d="M12.24 24.8202C15.4764 24.8202 18.2058 23.7575 20.1944 21.9232L16.3274 18.9249C15.2516 19.6568 13.8626 20.0713 12.2444 20.0713C9.11376 20.0713 6.45934 17.9592 5.50693 15.1196H1.51648V18.2106C3.55359 22.2627 7.70278 24.8202 12.24 24.8202Z" fill="#34A853"/>
<path id="Vector_3" d="M5.50277 15.1195C5.00011 13.6292 5.00011 12.0154 5.50277 10.525V7.43408H1.51674C-0.185266 10.8249 -0.185266 14.8197 1.51674 18.2105L5.50277 15.1195Z" fill="#FBBC04"/>
<path id="Vector_4" d="M12.24 5.569C13.9508 5.54254 15.6043 6.1863 16.8433 7.368L20.2694 3.94195C18.1 1.90484 15.2207 0.78487 12.24 0.820145C7.70277 0.820145 3.55359 3.37756 1.51648 7.43414L5.50252 10.5251C6.45052 7.68107 9.10935 5.569 12.24 5.569Z" fill="#EA4335"/>
</g>
<defs>
<clipPath id="clip0_994_10381">
<rect width="24" height="24" fill="white" transform="translate(0 0.819336)"/>
</clipPath>
</defs>
</svg>
